<svg width="38" height="38" viewBox="0 0 38 38" fill="none" xmlns="http://www.w3.org/2000/svg">
<path d="M19 0C29.472 0 38 8.52388 38 19.011C38 29.4761 29.472 38 19 38C8.52799 38 0 29.4761 0 19.011C0 8.52388 8.52799 0 19 0ZM16.8359 11.4568C16.4324 11.4568 16.0473 11.5485 15.6805 11.7318C15.222 11.9884 14.8552 12.3917 14.6535 12.8683C14.5251 13.1983 14.3234 14.1881 14.3234 14.2065C14.1216 15.288 14.0116 17.0478 14.0116 18.9908C14.0116 20.8441 14.1216 22.5287 14.2867 23.6286C14.305 23.6469 14.5068 24.8751 14.7268 25.2967C15.1303 26.0666 15.9189 26.5432 16.7625 26.5432H16.8359C17.3861 26.5248 18.5415 26.0482 18.5415 26.0299C20.4855 25.2233 24.3185 22.712 25.8591 21.0439L25.9691 20.9339C26.1708 20.7323 26.4276 20.4206 26.4826 20.3473C26.7761 19.9624 26.9228 19.4858 26.9228 19.011C26.9228 18.4776 26.7577 17.9826 26.4459 17.5794C26.3726 17.506 26.0975 17.1944 25.8407 16.9378C24.3369 15.3246 20.4122 12.685 18.3581 11.8784C18.0463 11.752 17.2577 11.4752 16.8359 11.4568Z" fill="#047857"/>
</svg>
